<svg id="visual" viewBox="0 0 540 960" width="540" height="960" xmlns="http://www.w3.org/2000/svg" xmlns:xlink="http://www.w3.org/1999/xlink" version="1.1"><path d="M318 960L333.2 945.5C348.3 931 378.7 902 380.3 872.8C382 843.7 355 814.3 353.3 785.2C351.7 756 375.3 727 366.3 698C357.3 669 315.7 640 330 611C344.3 582 414.7 553 441.7 523.8C468.7 494.7 452.3 465.3 448.7 436.2C445 407 454 378 460.3 349C466.7 320 470.3 291 443.3 262C416.3 233 358.7 204 355.2 174.8C351.7 145.7 402.3 116.3 428.5 87.2C454.7 58 456.3 29 457.2 14.5L458 0L540 0L540 14.5C540 29 540 58 540 87.2C540 116.3 540 145.7 540 174.8C540 204 540 233 540 262C540 291 540 320 540 349C540 378 540 407 540 436.2C540 465.3 540 494.7 540 523.8C540 553 540 582 540 611C540 640 540 669 540 698C540 727 540 756 540 785.2C540 814.3 540 843.7 540 872.8C540 902 540 931 540 945.5L540 960Z" fill="#ededed"></path><path d="M247 960L255.2 945.5C263.3 931 279.7 902 287 872.8C294.3 843.7 292.7 814.3 293.5 785.2C294.3 756 297.7 727 289.5 698C281.3 669 261.7 640 277 611C292.3 582 342.7 553 365.2 523.8C387.7 494.7 382.3 465.3 378.8 436.2C375.3 407 373.7 378 368.3 349C363 320 354 291 335 262C316 233 287 204 292.3 174.8C297.7 145.7 337.3 116.3 354.5 87.2C371.7 58 366.3 29 363.7 14.5L361 0L459 0L458.2 14.5C457.3 29 455.7 58 429.5 87.2C403.3 116.3 352.7 145.7 356.2 174.8C359.7 204 417.3 233 444.3 262C471.3 291 467.7 320 461.3 349C455 378 446 407 449.7 436.2C453.3 465.3 469.7 494.7 442.7 523.8C415.7 553 345.3 582 331 611C316.7 640 358.3 669 367.3 698C376.3 727 352.7 756 354.3 785.2C356 814.3 383 843.7 381.3 872.8C379.7 902 349.3 931 334.2 945.5L319 960Z" fill="#e0e0e0"></path><path d="M134 960L134.8 945.5C135.7 931 137.3 902 148.2 872.8C159 843.7 179 814.3 182.7 785.2C186.3 756 173.7 727 165.5 698C157.3 669 153.7 640 152.8 611C152 582 154 553 146 523.8C138 494.7 120 465.3 104.7 436.2C89.3 407 76.7 378 76.7 349C76.7 320 89.3 291 105.5 262C121.7 233 141.3 204 151.2 174.8C161 145.7 161 116.3 161 87.2C161 58 161 29 161 14.5L161 0L362 0L364.7 14.5C367.3 29 372.7 58 355.5 87.2C338.3 116.3 298.7 145.7 293.3 174.8C288 204 317 233 336 262C355 291 364 320 369.3 349C374.7 378 376.3 407 379.8 436.2C383.3 465.3 388.7 494.7 366.2 523.8C343.7 553 293.3 582 278 611C262.7 640 282.3 669 290.5 698C298.7 727 295.3 756 294.5 785.2C293.7 814.3 295.3 843.7 288 872.8C280.7 902 264.3 931 256.2 945.5L248 960Z" fill="#d5d5d5"></path><path d="M80 960L75.5 945.5C71 931 62 902 70.2 872.8C78.3 843.7 103.7 814.3 108.2 785.2C112.7 756 96.3 727 85.5 698C74.7 669 69.3 640 65.7 611C62 582 60 553 60 523.8C60 494.7 62 465.3 58.5 436.2C55 407 46 378 47.8 349C49.7 320 62.3 291 67.7 262C73 233 71 204 79 174.8C87 145.7 105 116.3 103.2 87.2C101.3 58 79.7 29 68.8 14.5L58 0L162 0L162 14.5C162 29 162 58 162 87.2C162 116.3 162 145.7 152.2 174.8C142.3 204 122.7 233 106.5 262C90.3 291 77.7 320 77.7 349C77.7 378 90.3 407 105.7 436.2C121 465.3 139 494.7 147 523.8C155 553 153 582 153.8 611C154.7 640 158.3 669 166.5 698C174.7 727 187.3 756 183.7 785.2C180 814.3 160 843.7 149.2 872.8C138.3 902 136.7 931 135.8 945.5L135 960Z" fill="#e0e0e0"></path><path d="M0 960L0 945.5C0 931 0 902 0 872.8C0 843.7 0 814.3 0 785.2C0 756 0 727 0 698C0 669 0 640 0 611C0 582 0 553 0 523.8C0 494.7 0 465.3 0 436.2C0 407 0 378 0 349C0 320 0 291 0 262C0 233 0 204 0 174.8C0 145.7 0 116.3 0 87.2C0 58 0 29 0 14.5L0 0L59 0L69.8 14.5C80.7 29 102.3 58 104.2 87.2C106 116.3 88 145.7 80 174.8C72 204 74 233 68.7 262C63.3 291 50.7 320 48.8 349C47 378 56 407 59.5 436.2C63 465.3 61 494.7 61 523.8C61 553 63 582 66.7 611C70.3 640 75.7 669 86.5 698C97.3 727 113.7 756 109.2 785.2C104.7 814.3 79.3 843.7 71.2 872.8C63 902 72 931 76.5 945.5L81 960Z" fill="#ededed"></path></svg>