<svg xmlns="http://www.w3.org/2000/svg" version="1.1" xmlns:xlink="http://www.w3.org/1999/xlink" xmlns:svgjs="http://svgjs.dev/svgjs" viewBox="0 0 800 800"><defs><linearGradient x1="50%" y1="0%" x2="50%" y2="100%" id="vvvortex-grad"><stop stop-color="#e9e9e9" stop-opacity="1" offset="0%" style="--darkreader-inline-stopcolor: #242729;" data-darkreader-inline-stopcolor=""></stop><stop stop-color="#e89959" stop-opacity="1" offset="100%" style="--darkreader-inline-stopcolor: #904c14;" data-darkreader-inline-stopcolor=""></stop></linearGradient></defs><g stroke="url(#vvvortex-grad)" fill="none" stroke-linecap="round"><circle r="605" cx="400" cy="400" stroke-width="11" stroke-dasharray="24 37" stroke-dashoffset="25" transform="rotate(335, 400, 400)" opacity="0.05"></circle><circle r="577.5" cx="400" cy="400" stroke-width="11" stroke-dasharray="45 45" stroke-dashoffset="25" transform="rotate(231, 400, 400)" opacity="0.10"></circle><circle r="550" cx="400" cy="400" stroke-width="10" stroke-dasharray="49 40" stroke-dashoffset="25" transform="rotate(214, 400, 400)" opacity="0.14"></circle><circle r="522.5" cx="400" cy="400" stroke-width="10" stroke-dasharray="24 28" stroke-dashoffset="25" transform="rotate(209, 400, 400)" opacity="0.19"></circle><circle r="495" cx="400" cy="400" stroke-width="10" stroke-dasharray="49 24" stroke-dashoffset="25" transform="rotate(27, 400, 400)" opacity="0.23"></circle><circle r="467.5" cx="400" cy="400" stroke-width="10" stroke-dasharray="25 45" stroke-dashoffset="25" transform="rotate(341, 400, 400)" opacity="0.28"></circle><circle r="440" cx="400" cy="400" stroke-width="9" stroke-dasharray="55 32" stroke-dashoffset="25" transform="rotate(48, 400, 400)" opacity="0.32"></circle><circle r="412.5" cx="400" cy="400" stroke-width="9" stroke-dasharray="37 31" stroke-dashoffset="25" transform="rotate(328, 400, 400)" opacity="0.37"></circle><circle r="385" cx="400" cy="400" stroke-width="9" stroke-dasharray="43 16" stroke-dashoffset="25" transform="rotate(332, 400, 400)" opacity="0.41"></circle><circle r="357.5" cx="400" cy="400" stroke-width="8" stroke-dasharray="24 13" stroke-dashoffset="25" transform="rotate(9, 400, 400)" opacity="0.46"></circle><circle r="330" cx="400" cy="400" stroke-width="8" stroke-dasharray="15 14" stroke-dashoffset="25" transform="rotate(193, 400, 400)" opacity="0.50"></circle><circle r="302.5" cx="400" cy="400" stroke-width="8" stroke-dasharray="33 35" stroke-dashoffset="25" transform="rotate(163, 400, 400)" opacity="0.55"></circle><circle r="275" cx="400" cy="400" stroke-width="8" stroke-dasharray="31 12" stroke-dashoffset="25" transform="rotate(11, 400, 400)" opacity="0.59"></circle><circle r="247.5" cx="400" cy="400" stroke-width="7" stroke-dasharray="26 13" stroke-dashoffset="25" transform="rotate(97, 400, 400)" opacity="0.64"></circle><circle r="220" cx="400" cy="400" stroke-width="7" stroke-dasharray="45 26" stroke-dashoffset="25" transform="rotate(339, 400, 400)" opacity="0.68"></circle><circle r="192.5" cx="400" cy="400" stroke-width="7" stroke-dasharray="40 11" stroke-dashoffset="25" transform="rotate(242, 400, 400)" opacity="0.73"></circle><circle r="165" cx="400" cy="400" stroke-width="6" stroke-dasharray="24 43" stroke-dashoffset="25" transform="rotate(161, 400, 400)" opacity="0.77"></circle><circle r="137.5" cx="400" cy="400" stroke-width="6" stroke-dasharray="48 10" stroke-dashoffset="25" transform="rotate(67, 400, 400)" opacity="0.82"></circle><circle r="110" cx="400" cy="400" stroke-width="6" stroke-dasharray="13 16" stroke-dashoffset="25" transform="rotate(226, 400, 400)" opacity="0.86"></circle><circle r="82.5" cx="400" cy="400" stroke-width="6" stroke-dasharray="24 40" stroke-dashoffset="25" transform="rotate(346, 400, 400)" opacity="0.91"></circle><circle r="55" cx="400" cy="400" stroke-width="5" stroke-dasharray="28 21" stroke-dashoffset="25" transform="rotate(247, 400, 400)" opacity="0.95"></circle><circle r="27.5" cx="400" cy="400" stroke-width="5" stroke-dasharray="48 39" stroke-dashoffset="25" transform="rotate(44, 400, 400)" opacity="1.00"></circle></g></svg>