<svg xmlns="http://www.w3.org/2000/svg" version="1.1" xmlns:xlink="http://www.w3.org/1999/xlink" xmlns:svgjs="http://svgjs.dev/svgjs" viewBox="0 0 800 800" opacity="0.27"><defs><linearGradient x1="50%" y1="0%" x2="50%" y2="100%" id="ssscribble-grad"><stop stop-color="#e89959" stop-opacity="1" offset="0%"></stop><stop stop-color="#e89959" stop-opacity="1" offset="100%"></stop></linearGradient></defs><g fill="none" stroke-width="2.25" stroke="url(#ssscribble-grad)" stroke-linecap="round"><path d="M736.16 325.06C766.01 342.67 827.82 365.53 906.17 393.58 984.78 421.89 1044.22 455.78 1072.08 495.09 1063.93 534.53 1020.91 578.7 952.65 626.1 871.71 670.78 793.44 714.83 730.96 754.39 685.3 803.96 746.57 799.23 854.6 725.72 945.46 632.86 958.3 570.21 893.55 615.24 776.05 767.45 650.96 939.34 551.7 987.17 467.28 824.72 476.65 1059.18 477.87 981.71 475.55 828.46 449.44 804.55 425.29 965.6 407.68 1057.29 385.99 1083.25 360.42 1034.43 334.82 932.33 305.34 819.67 272.31 740.99 239.5 724.82 203.66 773.9 165.69 864.94 129.29 964.06 92.54 1031.42 57.3 1043.96 1.16 907.53 -29.71 713.01 -18.58 655.45 26.4 764.26 100.95 901.65 172.31 935.34 190.91 840.24 136.32 681.69 8.81 550.19 -154.09 522 54.14 607.93 72.81 614.25 38.15 614.27 -26.46 608.6 -108.55 598.24 -190.39 587.21 -253.98 572.69 -283.83 555.09 -272.93 537.48 -223.72 517.22 -148.6 493.95 -64.3 470.03 10.72 441.92 61.4 408.7 78.45 373.57 60.51 332.19 13.91 284.36 -52.22 235.22 -121.81 181.26 -180.82 125 -231.89 28.77 -167.07 -32.99 -31.44 -20.11 108.81 57.1 188.95 165.11 194.84 214.09 139.02 134.28 65.57 -44.83 10.89 -190.33 -17.4 -169.45 -4.01 -6.52 38.4 104.12 67.59 78.7 99.62 -0.1 132.54 -109.15 167.66 -210.13 201.62 -267.64 233.28 -258.29 265.51 -186.44 294.63 -78.96 320.1 19.66 345.63 65.03 367.34 37.33 384.95 -54.33 409.09 -214.5 435.55 -180.24 438.86 -17.6 440.39 61.75 439.05 80.04 435.87 35.23 434.89 -54.29 434.12 -151.17 435.44 -219.8 454.03 -198.32 498.6 -10.73 581.16 141.36 690.1 130.22 814.1 0.09 916.07 -105.98 956.34 -104.9 917.96 8.27 814.37 155.39 715.4 283.18 682.13 345.91 758.98 357.37 830.89 348.32 911.94 335.55 988.03 322.8 1044.57 307.34 1070.93 295.78 1060.69 289.53 1016.82 283.42 946.98 283.32 866.17 289.29 794.52 295.53 747.07 307.45 736.16 325.05Q736.16 325.06 736.16 325.06" opacity="0.12"></path><path d="M706.16 514.25C790.8 547.38 938.92 595.86 1035.28 651.6 1014.93 698.03 889.97 731.77 744.47 732.11 657.96 701.32 668.67 632.47 749.03 552.61 853.02 521.87 915.98 570.46 913.17 710.75 849.02 869.9 746.14 955.75 637.7 893.01 536.18 745.77 462.19 656.24 414.22 746.45 385.7 942.12 369.2 1037.72 353.45 914.49 342.21 734.68 321.97 737.53 288.83 935.6 255.69 1054.93 211.24 928.25 159.98 732.9 113.23 713.16 69.45 875.7 40.54 1006.99 31.09 957 50.51 773.94 100.96 633.64 158.32 639.56 213.64 756.91 234.35 866.29 193.73 892.19 91.48 811.86 -47 681.68 -161.87 545.85 -202.29 455.18 -140.07 412.1 -18.86 406.45 87.23 417.15 94.79 422.21 -14.35 431.76 -169.19 421.81 -253.83 388.69 -201.3 355.55 -53.46 300.8 77.08 228.76 103.43 161.2 19.41 90.22 -104.25 38.43 -190.54 24.07 -179.86 60.15 -84.18 144.9 53.06 224.02 170.95 256.8 234.48 187.5 236.63 34.7 195.19 -121.95 141.24 -162.4 69.8 20.04 83.88 -123.8 140.76 -207.62 186.05 -25.07 227.68 94.93 260.82 -24.33 293.96 -222.42 317.03 -218.62 334.24 -26.04 356.56 110.01 383.42 33.31 425.39 -138.06 485.56 -204.02 570.77 -84.8 677.96 96.93 827.49 170.94 853.92 -65.42 711.88 15.84 650.69 146.76 669.7 270.19 780.27 358.41 928.23 415.51 1031.12 442.06 1017.59 458.13 899.85 464.88 758.72 481.11 706.16 514.24Q706.16 514.25 706.16 514.25" opacity="0.57"></path><path d="M676.16 567.47C887.71 615.22 635.45 495.03 653.89 477.63 742.17 545.23 827.74 674.87 874.18 824.3 872.04 911.93 819.31 888.37 737.77 760.66 639.13 642.8 546.8 642.42 470.98 791.9 405.49 963.65 356.9 994.57 319.34 844.89 286.52 690.6 256.27 716.07 225.21 905.6 194.14 1024.75 163.73 924.04 137.96 732.2 116.94 664.3 109.01 781.32 120.66 937.34 142.64 973.16 183.81 848.56 234.58 677.91 268.23 582.45 276.37 614.51 237.79 717.36 150.63 820.69 28.23 849.91 -92.38 801.88 -162.18 697.55 -152.03 580.27 -61.07 481.78 54.65 400.91 131.97 349.59 112.13 315.68 -3.52 291.04 -147.7 266.8 -223.83 235.74 -178.35 204.68 -43.5 168.25 88.61 134.3 139.63 109.61 88.06 104.41 -21.21 131.44 -126.98 176.09 -163.83 242.21 -118.55 298.67 -11.31 298.84 113.78 225.04 215.47 81 281.4 -97.02 202.83 118.27 155.64 108.1 136 -70.67 135.81 -205.4 150.66 -149.54 169.9 30.29 196.81 124.76 227.87 5.66 258.94 -183.88 292.69 -203.12 332.04 -36.86 375.77 124.83 432.46 111.63 505.94 -37.33 586.28 -164.06 678.8 -135.85 770.34 14.33 838.32 174.4 871.21 234.82 851.87 187.93 746.78 36.7 647.14 65.27 808.02 210.15 940.08 312.41 1009.35 391.94 970.35 449.02 850.23 498.69 721.67 536.39 676.16 567.46Q676.16 567.47 676.16 567.47" opacity="0.35"></path><path d="M646.16 421.39C714.1 450.38 840.86 458.96 948.1 448.9 980.24 440.48 917.37 420.58 796.74 403.96 671.56 413.62 594.49 457.65 584.19 550.12 635.09 670.34 713.04 795.53 782.57 871.04 828.79 857.65 831.9 758.09 798.3 633.33 736.36 588.36 660.82 670.81 586.2 841.85 509.61 965.53 444.77 936.42 393.23 775.07 343.89 650.39 305.09 695.46 276.1 875.6 238.19 955.69 226.85 662.39 259.24 843.35 283.61 944.71 311.41 903.55 328.65 760.46 317.57 608.9 272.83 541.01 188.6 568.95 81.08 662.27 -31.25 751.78 -112.34 794.68 -132.23 785.19 -81.16 726.66 22.76 647.43 122.13 554.37 168.5 472.81 125.17 409.95 6.74 350.54 -125.88 307.27 -193.83 278.27 -154.98 249.27 -33.58 235.92 96.5 240.65 167.25 248.82 148.16 277.63 62.5 320.45 -46.3 349.44 -117.23 360.23 -121.92 325.05 -61.83 237.48 41.08 106.34 151.36 -24.98 248.49 -90.94 310.74 -57.45 338.6 63.89 336.42 176.81 318.21 191.99 298.38 69.4 266.4 -141.07 270.76 118.62 307.69 35.66 336.68 -144.49 377.42 -183.74 429.83 -47.9 483.55 124.65 549.9 170.29 625.32 67.89 695.4 -81.89 761.37 -138.36 808.25 -63.21 825.08 91.72 804.47 225.67 745.35 277.07 673.07 239.57 604.52 156.01 574.61 80.47 609.48 32.69 706.4 36.4 836.46 76.99 943.39 143.86 979 216.51 919.46 279.6 800.57 344.35 685.04 392.38 646.16 421.38Q646.16 421.39 646.16 421.39" opacity="0.11"></path><path d="M616.16 249.85C676.27 276.77 791.26 294.47 898.52 308.39 950.22 329.09 919.07 359.34 824.26 411.36 703.14 483.36 602.1 581.98 549.46 694.4 553.01 785.16 599.23 833.02 662.11 808.21 749.54 670.3 754.18 659.38 688.67 880.9 630.71 943.44 573.92 866.03 524.73 707.23 474.59 614.3 435.09 675.63 408.17 845.6 381.24 961.08 368.16 909.29 367.53 746.47 369.85 617.61 381.73 892.1 347.72 838.07 293.28 694.8 211.94 564.66 110.56 501.14 12.4 515 -65.74 579.81 -97.32 652.01 -72.71 714.58 4.17 738.16 105.56 726.8 180.63 690.53 196.46 639.88 134.36 589.9 16.71 535.49 -103.72 492.58 -163.83 465.66 -131.16 438.72 -23.44 429.06 101.36 432.68 186.36 431.88 197.34 433.57 141.03 423.18 44.02 387.89 -43.72 319.99 -88.29 215.93 -79.58 102.23 -18.86 -1.23 70.98 -50.4 173.36 -22.18 263.49 76.01 330.47 191.26 375.23 237.28 397.4 173.14 406.38 19.55 402.19 -128.47 414.21 157.9 447.97 65.66 474.89 -104.31 513.78 -160.25 562.15 -56.96 608.77 112.23 660.5 204.99 709.99 162.21 747.67 27.94 769.84 -82.94 766.6 -94.58 741.11 -2.87 689.65 137.86 622.55 256.66 567.99 316.76 539.18 307.55 558.49 258.29 631.08 187.37 742.97 133.09 859.72 107.74 935.77 102.38 940.14 121.11 865.55 151.19 751.13 188.04 648.86 222.92 616.16 249.84Q616.16 249.85 616.16 249.85" opacity="0.67"></path><path d="M586.16 257C638.81 281.85 741.59 316.54 845.65 363.17 911.68 413.52 909.56 480.63 845.03 563.1 741.15 642.78 633.41 720.35 551.8 773.97 510.75 785.69 513.34 746.8 546.24 662 600.93 574.37 654.21 518.43 693.29 539.87 720.62 643.57 726.16 788.93 714.33 895.87 691.41 896.48 660.11 787.25 627.15 643.39 591.46 582.48 559.73 656.54 534.88 815.6 510.02 927.61 493.22 897.66 482.05 757.52 468.13 613.71 454.22 568.41 434.07 637.24 402.83 767.26 356.36 862.83 290.73 869.63 213.35 787.71 124.39 659.82 37.12 543.24 -28.35 468.92 -60.4 453.86 -45.22 480.52 10.5 536.48 95.95 590.36 181.61 626.33 227.92 651.82 215.9 654.8 140.28 642.15 26.63 623.75 -81.18 599.76 -133.83 574.9 -106.87 550.05 -12.85 525.51 103.86 497.05 197.44 462.84 234.05 414.65 209.13 346.09 135.28 267.06 48.42 172.25 -19.49 77.99 -53.98 13 -41.63 -7.62 8.52 34.1 86.23 118.1 173.13 216.52 254.2 272.59 328.18 239.93 384.79 122.1 425.63 -26.13 455.93 -113.21 477.67 -82.09 496.71 52.1 512.74 182.67 531.97 207.63 556.82 95.66 581.67 -63.4 610.98 -132.48 641.81 -62.01 681.38 153.12 700.3 82.21 656.79 -57.15 614.02 -52.73 562.8 32.66 517.66 152.86 500.06 270.24 517.17 344.82 577.52 371.4 671.32 356.09 780.47 319.45 872.53 282.84 915.69 243.43 893.25 221.53 809.27 218.06 702.15 218.29 613.14 232.13 586.16 256.99Q586.16 257 586.16 257" opacity="0.27"></path><path d="M556.16 434.32C601.75 457.1 692.13 494.42 790.17 543.45 865.09 590.28 887.41 642.88 853.98 691.22 776.6 722.92 678.39 732.04 585.43 707.14 513.03 657.16 474.15 583.79 466.9 511.09 487.87 477.61 523.3 500.98 560.54 591.31 614.36 775.65 647.75 766.03 632.12 585.45 616.29 554.99 596 638.1 573.22 785.6 550.44 893.08 526.24 882.56 499.11 768.32 469.51 625.05 432.58 541.17 385.33 555 331.98 650.71 266.46 763.41 191.53 832.4 119.18 831.71 51.04 761.1 0.21 655.42 -22.39 542.66 -10.52 457.99 38.15 411.4 107.39 400.21 185.16 414.51 245.85 437.26 262.57 469.32 227.29 491.9 143.57 499.8 36.75 506.75 -58.24 498.78 -103.83 476 -82.1 453.23 -1.53 416.71 104.77 366.8 201.38 315.94 257.67 251.93 262.53 180.38 218.53 118.15 147.6 66.32 75.08 42.38 14.51 53.84 -13.75 105.79 -7.74 188.7 27.82 264.53 85.48 308.14 152.47 285.13 226.24 192.44 294.22 59.31 351.85 -53.1 405.18 -83.66 447.85 -12.78 481.76 121.68 513.46 227.15 540.13 233.1 562.91 125.66 585.7 -21.84 603.51 -100.38 614.78 -61.17 623.84 66.93 622.62 202.44 608.77 270.12 590.63 242.12 560.16 146.77 521.51 44.03 489.63 -22.57 464.66 -18.94 458.94 44.39 482.79 146.94 538.06 253.02 622.34 338.12 718.58 398.13 809.95 426.53 870.66 434.31 882.51 425.45 839.21 414.3 751.4 410.43 653.88 404.37 577.91 411.53 556.16 434.31Q556.16 434.32 556.16 434.32" opacity="0.64"></path><path d="M526.16 570.79C565.12 591.5 643.13 614.24 732.8 635.43 811.3 652.5 852.15 660.33 847.29 652.04 800.85 632.31 724.62 592.41 637.86 536.34 553.21 485.59 486.61 445.27 443.71 437.15 424.46 475.64 425.57 560.52 438.78 675.84 463.47 781.27 487.89 841.97 506.27 826.11 529.62 682.67 524.58 576.01 498.07 755.6 477.36 857.51 448.52 863.63 411.78 776.69 374.15 645.19 327.46 538.39 272.72 502.33 218.45 545.97 159.93 638.18 103.32 731.35 58.19 794.36 27.34 799.71 19.44 753.7 35.2 669.98 77.24 574.63 140.33 489.02 205.52 416.75 263.18 369.29 294.44 341.91 284.12 329.32 231.48 324.61 144.99 319.24 47.32 317.2 -34.87 307.36 -73.83 286.65 -56.82 265.94 10.72 235.34 104.89 198.33 233.97 148.16 263.47 106.52 180.59 153.52 114.53 207.21 63.2 272.83 34.8 329.42 27.89 348.3 45.21 318.41 79.65 233.85 127.67 119.12 181.08 8.33 233 -50.5 287.14 -29.65 334.59 65.33 373.35 188.84 411.69 267.81 441.55 257.53 462.26 155.66 482.97 20.29 493.57 -64 494.29 -52.9 494.59 43.76 484.82 173.65 466.57 273.24 450.54 304.31 431.24 262.18 415.13 178.32 412.6 84.56 425 24.24 459.05 12.89 514.6 48.15 590.48 118.2 678.1 200.87 760.05 288.86 823.62 362.86 851.4 418.49 836.59 462.66 779.25 492.52 692.74 514.51 606.56 532.37 543.19 550.07 526.16 570.78Q526.16 570.79 526.16 570.79" opacity="0.23"></path><path d="M496.16 504.01C528.93 522.65 594.83 530.36 674.34 526.64 751.55 521.55 804.3 503.47 822.78 473.82 806.82 446.32 759.44 415.54 692.61 392.15 614.98 390.64 540.32 415.2 477.32 473.38 427.27 557.03 394.46 657.14 376.18 749.48 370.53 804.45 372.34 804.94 376.2 744.26 387.1 598.29 381.97 557.78 358.66 725.6 340.02 820.94 312.96 840.6 278.91 780.6 245.53 669.54 206.81 556.4 166.01 484.2 129.85 473.49 97.34 520.03 74.27 597.1 63.82 682.13 69.87 741.66 95.49 762.84 134.06 746.77 186.62 698.34 244.84 633.36 292.26 557.03 322.92 485.72 325.22 426.28 293.07 372.25 229.71 331.29 145.31 300.71 58.61 273.07 -11.06 250.82 -43.83 232.18 -31.03 213.54 24.17 199.38 105.04 191.87 193.03 187.3 268 194.34 316.32 216.06 331.96 243.2 316.74 283.81 279.85 331.41 226.65 367.67 173.11 389.36 128.97 381.01 93.97 335.41 77.02 253.8 76.84 149.36 89.1 52.87 112.74 -10.39 142.32 -13.37 177.38 45.14 212.37 147.66 243.62 251.54 275.89 304.37 302.17 280.97 320.81 185.66 344.51 19.71 355.82 81.73 352.53 246.66 355.25 321.03 362.29 337.27 378.76 301.71 407.66 228.78 451.36 150.76 510.79 91.54 579.36 57.79 655 59.98 727.61 90.23 783.92 142.34 815.87 203.82 813.9 263.63 779.25 325.57 714.9 377.56 634.11 417.81 560.42 456.67 508.98 485.36 496.16 504Q496.16 504.01 496.16 504.01" opacity="0.41"></path><path d="M466.16 313.44C550.8 346.58 691.97 342.16 780.12 327.74 772.37 348.81 673.17 427.96 549.25 583.6 432.54 730.09 358.48 774.06 318.46 643.46 298.17 488.3 279.47 497.54 246.34 695.6 190.98 752.42 125.39 493.67 209.84 663.74 290.33 720.51 354.38 675.05 337.84 591.65 225.41 487.2 70.8 410.56 -13.83 377.42 38.69 344.27 186.1 357.77 316.87 404.79 364.39 430.78 323.58 424.54 250.17 324.36 169.74 162.28 132.76 24.26 137.27 56.4 160.86 223.3 198.09 334.93 231.23 215.66 264.37 17.56 290.27 21.7 324.1 201.15 377.01 356.06 465.7 347.25 589.56 244.19 706.4 131.98 782.38 104.55 759.17 140.9 652.7 212.75 518.72 280.3 466.16 313.43Q466.16 313.44 466.16 313.44" opacity="0.82"></path><path d="M436.16 225.88C504.1 254.87 624.61 290.85 720.87 351.93 757.57 434.4 714.74 558.15 628.08 685.07 519.75 742.22 425.61 688.09 358.9 538.24 302.83 436.09 263.68 485.47 234.68 665.6 205.69 783.47 189.6 708.72 195.42 537.5 211.88 414.62 260.77 422.21 331.1 505.43 379.76 610.64 391.83 660.67 333.88 656.05 216.36 622.71 84.1 578.52 16.16 549.53 55.01 520.53 176.03 509.48 303.03 492.57 384.88 446.95 397.49 351.66 364.66 208.45 301.03 87.23 249.52 48.88 227.23 150.48 212.81 300.44 223.23 363.47 252.22 245.66 281.21 65.5 326.02 27.83 390.69 151.22 463.23 322.33 559.98 407.23 661.62 388.09 732.47 299.18 750.63 220.67 690.04 188.45 584.31 177.61 475.04 196.87 436.16 225.87Q436.16 225.88 436.16 225.88" opacity="0.85"></path><path d="M406.16 345.52C458.81 370.37 556.23 427.08 648.36 509.53 711.83 587.18 718.28 665.72 680.05 700.55 611.08 669.58 533.67 566.9 468.27 444 402.99 400.03 356.19 476.54 331.34 635.6 306.48 747.61 305.93 717.47 328.14 587.38 369.78 406.58 414.74 470.21 316.65 541.29 206.3 570.29 98.81 568.53 46.16 543.68 73.12 518.82 166.97 473.23 279.13 401.16 375.66 320.45 428.79 214.79 440.97 119.68 419.3 82.68 388.24 129.83 368.25 255.64 345.83 367.52 345.17 387.63 370.02 275.66 394.86 116.58 442.87 50.1 508.36 112.27 571.42 253.38 641.27 382.43 695.52 445.98 715.92 443.73 689.17 403.98 610.86 369.39 516.92 330.02 433.14 320.66 406.16 345.51Q406.16 345.52 406.16 345.52" opacity="0.86"></path><path d="M376.16 529.99C415.12 550.7 488.77 587.57 567.22 626.56 638.61 651.31 676.69 651.24 680.5 606.95 659.82 535.79 620.53 442.28 578.64 373.9 531.42 380.74 493.69 470.24 472.98 605.6 452.26 707.51 450.54 712.56 461.87 633.01 467.86 510.06 474.83 401.72 468.37 339.37 437.41 321.42 377.36 335.43 290.8 353.32 197.17 380.1 115.12 387.55 76.16 366.84 93.17 346.13 160.81 299.21 250.52 236.54 342.98 182.77 415.57 136.44 460.54 127.24 482.11 162.44 486.73 248.81 487.78 356.58 482.36 420.95 486.75 407.51 507.46 305.6 528.16 170.24 563.23 89.13 604.55 97.47 639.39 181.03 667.1 296.51 672.68 394.82 654.86 466.25 604.24 498.64 526.97 509.78 452.44 506.68 393.19 509.27 376.16 529.98Q376.16 529.99 376.16 529.99" opacity="0.30"></path><path d="M346.16 559.76C430.8 592.9 558.03 566.77 622.12 449.83 637.75 355.94 599.93 377.54 566.8 575.6 533.66 694.93 511.48 573.06 452.41 409.45 344.89 295.45 190.8 262.59 106.16 229.46 158.7 196.32 305.24 169.17 423.92 239.75 504.2 359.92 541.35 454.93 574.49 335.6 607.62 137.54 630.48 142.8 593.63 280.13 518.39 440.49 398.72 526.62 346.16 559.75Q346.16 559.76 346.16 559.76" opacity="0.61"></path><path d="M316.16 399.4C368.8 424.25 455.5 380.67 517.43 314.76 568.52 305.39 576.18 386.55 551.33 545.6 526.48 657.61 473.82 626.88 390.15 527 295.65 403.05 188.8 319.87 136.16 295.02 163.12 270.17 256.64 308.35 350.6 399.72 441.69 467.03 502.33 477.61 527.19 365.6 552.04 206.55 536.4 145.53 477.88 187.48 416.49 285.96 343.12 374.54 316.16 399.4Q316.16 399.4 316.16 399.4" opacity="0.24"></path><path d="M286.16 239.75C370.78 272.88 469.85 317.56 436.72 515.6 403.58 634.93 250.78 518.64 166.16 485.51 218.7 452.37 363.41 514.93 396.55 395.6 429.68 197.56 338.7 206.61 286.16 239.75Q286.16 239.75 286.16 239.75" opacity="0.29"></path></g></svg>